<?xml version="1.0" encoding="UTF-8"?>
<!-- Created with Inkscape (http://www.inkscape.org/) -->
<svg width="48" height="48" version="1.1" viewBox="0 0 48 48" xmlns="http://www.w3.org/2000/svg" xmlns:xlink="http://www.w3.org/1999/xlink">
 <defs>
  <linearGradient id="linearGradient840" x1="-1" x2="-1" y1="48" gradientUnits="userSpaceOnUse">
   <stop stop-color="#2c5aa0" offset="0"/>
   <stop stop-color="#5599ff" offset="1"/>
  </linearGradient>
  <linearGradient id="linearGradient1289" x1="49" x2="49" y1="48" gradientUnits="userSpaceOnUse">
   <stop stop-color="#0b1728" offset="0"/>
   <stop stop-color="#374548" offset="1"/>
  </linearGradient>
 </defs>
 <path d="m24 4.8941e-7c19 0 24 5 24 24s-5 24-24 24-24-5-24-24 5-24 24-24z" fill="url(#linearGradient840)"/>
 <path d="m24 0v8h8v-7.5664c-2.3492-0.28895-4.9792-0.43359-8-0.43359zm8 8v8h8v-8h-8zm8 0h5.3848c-1.2421-2.392-2.9927-4.1426-5.3848-5.3848v5.3848zm0 8v8h8c0-3.0208-0.14464-5.6508-0.43359-8h-7.5664zm0 8h-8v8h8v-8zm0 8v8h5.3848c1.1007-2.1197 1.7854-4.7788 2.1816-8h-7.5664zm0 8h-8v7.5664c3.2212-0.3962 5.8803-1.0809 8-2.1816v-5.3848zm-8 0v-8h-8v8h8zm-8 0h-8v7.5664c2.3492 0.28895 4.9792 0.43359 8 0.43359v-8zm-8 0v-8h-8v8h8zm-8 0h-5.3848c1.2421 2.392 2.9927 4.1426 5.3848 5.3848v-5.3848zm0-8v-8h-8c0 3.0208 0.14464 5.6508 0.43359 8h7.5664zm0-8h8v-8h-8v8zm0-8v-8h-5.3848c-1.1007 2.1197-1.7854 4.7788-2.1816 8h7.5664zm0-8h8v-7.5664c-3.2212 0.3962-5.8803 1.0809-8 2.1816v5.3848zm8 0v8h8v-8h-8zm8 8v8h8v-8h-8zm0 8h-8v8h8v-8z" fill="#ffffff" opacity=".25"/>
 <path d="m24 0c-3.7966 0-7.025 0.20469-9.7754 0.67578l15.703 47.107c14.122-1.1107 18.072-6.9432 18.072-23.783 0-19-5-24-24-24z" fill="url(#linearGradient1289)" opacity=".8"/>
 <path d="m24 1c-0.98695 0-1.9098 0.02204-2.8164 0.050781-0.39909 0.013411-0.78828 0.029432-1.1719 0.048828-0.45715 0.022002-0.89396 0.053489-1.3301 0.083984-1.0418 0.075547-2.0372 0.17006-2.9668 0.29492-0.05241 0.00704-0.11004 0.012334-0.16211 0.019531 9e-3 0.03056 0.01834 0.050866 0.02734 0.082031l0.29688 0.89062c2.3096-0.30947 4.9741-0.4707 8.1231-0.4707 9.3246 0 14.704 1.2818 17.711 4.2891 3.0073 3.0073 4.2891 8.3863 4.2891 17.711s-1.2818 14.704-4.2891 17.711c-2.2516 2.2516-5.8352 3.5357-11.406 4.0391l0.3125 0.93555c0.0042 0.01292 0.0056 0.02225 0.0098 0.03516 0.74307-0.07029 1.4497-0.1564 2.1289-0.25586 1.223-0.17866 2.3484-0.40406 3.377-0.68359 0.0109-3e-3 0.02232-0.0048 0.0332-0.0078 0.0089-0.0024 0.01654-0.0054 0.02539-0.0078 1.0175-0.27948 1.9392-0.61405 2.7793-1.002 0.06674-0.03092 0.13355-0.06212 0.19922-0.09375 0.40454-0.19423 0.79339-0.39916 1.1582-0.62109 0.34374-0.20912 0.66277-0.43532 0.97266-0.66992 0.08572-0.065 0.1707-0.13027 0.25391-0.19726 0.30201-0.24281 0.59365-0.49405 0.86328-0.76367 3.3161-3.316 4.582-9.0057 4.582-18.418s-1.2659-15.102-4.582-18.418c-3.316-3.3161-9.0057-4.582-18.418-4.582z" fill="#ffffff" opacity=".15"/>
 <path d="m14.547 1.6406c-0.50217 0.08383-0.98612 0.17755-1.4531 0.2793-0.0091 0.00198-0.018254 0.0038694-0.027344 0.0058593-0.46714 0.10228-0.91664 0.213-1.3496 0.33398-0.87144 0.24351-1.6745 0.52604-2.4141 0.84961-0.00922 0.00403-0.018141 0.0076698-0.027344 0.011719-0.33061 0.14541-0.64571 0.30056-0.95117 0.46289-0.080974 0.043161-0.15904 0.088439-0.23828 0.13281-0.22782 0.1272-0.44836 0.26106-0.66211 0.39844-0.095897 0.061793-0.19204 0.12363-0.28516 0.1875-0.20327 0.1391-0.39763 0.28442-0.58789 0.43359-0.075855 0.059573-0.15468 0.11654-0.22852 0.17773-0.25786 0.21343-0.50659 0.43433-0.74023 0.66797-2.9016 2.9015-4.2338 7.6207-4.5215 15.061-0.041091 1.0628-0.060547 2.1809-0.060547 3.3574 0 8.824 1.1129 14.376 3.9844 17.768 0.19143 0.22612 0.3904 0.44314 0.59766 0.65039 3.316 3.3161 9.0057 4.582 18.418 4.582 1.025 0 1.9989-0.018394 2.9297-0.052734 0.92938-0.03429 1.8157-0.08448 2.6699-0.14844l-0.32812-0.98242c-6.23e-4 4.5e-5 -0.001329-4.4e-5 -0.001953 0l-14.498-43.508h-0.001953l-0.22266-0.66797zm-0.66602 1.1523 14.355 43.078c-1.3195 0.075259-2.6994 0.12891-4.2363 0.12891-9.3246 0-14.704-1.2818-17.711-4.2891-3.0073-3.0073-4.2891-8.3863-4.2891-17.711s1.2818-14.704 4.2891-17.711c1.685-1.6849 4.1388-2.8172 7.5918-3.4961z" fill="#ffffff" opacity=".25"/>
 <path d="m14.225 0.67578c-11.014 1.8865-14.225 8.1208-14.225 23.324 0 19 5 24 24 24 2.16 0 4.1164-0.07433 5.9277-0.2168l-0.32812-0.98438c-1.7097 0.12802-3.5511 0.20117-5.5996 0.20117-9.4123 0-15.102-1.2659-18.418-4.582-3.3161-3.3161-4.582-9.0057-4.582-18.418s1.2659-15.102 4.582-18.418c2.0117-2.0117 4.9048-3.2636 8.9648-3.9414z" fill="#0b1728" opacity=".4"/>
 <path d="m24 0c-1.0688 0-2.0787 0.021441-3.0605 0.054688-0.38154 0.013149-0.7427 0.036131-1.1113 0.054688-0.56644 0.028081-1.1214 0.060277-1.6582 0.10156-0.42169 0.03279-0.83448 0.070036-1.2383 0.11133-0.46321 0.046979-0.90757 0.10345-1.3477 0.16211-0.45798 0.061294-0.92553 0.1171-1.3594 0.19141l0.32227 0.96484 15.381 46.143c0.003806-2.99e-4 0.007915-0.001653 0.011719-0.001953 0.73776-0.058195 1.4321-0.1358 2.1152-0.2207 0.17529-0.021794 0.35754-0.040823 0.5293-0.064453 6.3594-0.87435 10.319-3.0107 12.627-7.1875 0.14245-0.25783 0.27811-0.52335 0.4082-0.79688 0.002491-0.005251 0.005325-0.010369 0.007812-0.015625 0.003314-0.006988 0.00646-0.014486 0.009766-0.021485 0.1246-0.26377 0.24392-0.53581 0.35742-0.81445 0.003709-0.009131 0.00802-0.018197 0.011718-0.027344 0.007445-0.018367 0.014087-0.038208 0.021485-0.05664 0.11177-0.2785 0.21916-0.56388 0.32031-0.85742 0.32354-0.93891 0.59282-1.9551 0.81445-3.0547 0.12065-0.59858 0.21775-1.2382 0.31055-1.8867 0.068342-0.47929 0.12573-0.98092 0.17969-1.4883 0.040959-0.38352 0.084137-0.76025 0.11719-1.1602 0.050747-0.61669 0.086261-1.2673 0.11914-1.9238 0.016565-0.32903 0.042429-0.64123 0.054687-0.98047 0.037002-1.0296 0.056641-2.0985 0.056641-3.2246 0-19-5-24-24-24zm0 1c9.4123 0 15.102 1.2659 18.418 4.582 3.3161 3.3161 4.582 9.0057 4.582 18.418s-1.2659 15.102-4.582 18.418c-2.4497 2.4496-6.2069 3.7745-11.791 4.3027-0.0042-0.01291-0.005567-0.022236-0.009765-0.035156l-15.037-45.105c-9e-3 -0.031165-0.018324-0.051471-0.027344-0.082031 2.418-0.33421 5.197-0.49805 8.4473-0.49805z" fill="#020202" opacity=".5"/>
</svg>
